<svg width="40" height="40" viewBox="0 0 40 40" fill="none" xmlns="http://www.w3.org/2000/svg">
<path fill-rule="evenodd" clip-rule="evenodd" d="M35.8933 19.3132L34.5898 18.2697V35.4227H36.6735C37.005 35.4227 37.323 35.5545 37.5575 35.7889C37.792 36.0234 37.9237 36.3414 37.9237 36.673C37.9237 37.0045 37.792 37.3225 37.5575 37.557C37.323 37.7915 37.005 37.9232 36.6735 37.9232H3.33421C3.00263 37.9232 2.68463 37.7915 2.45017 37.557C2.2157 37.3225 2.08398 37.0045 2.08398 36.673C2.08398 36.3414 2.2157 36.0234 2.45017 35.7889C2.68463 35.5545 3.00263 35.4227 3.33421 35.4227H5.41791V18.2697L4.11601 19.3132C3.98773 19.4158 3.84051 19.4921 3.68274 19.5377C3.52498 19.5834 3.35977 19.5975 3.19654 19.5793C3.03331 19.5611 2.87527 19.511 2.73142 19.4317C2.58758 19.3524 2.46076 19.2456 2.3582 19.1173C2.25564 18.9891 2.17935 18.8418 2.13369 18.6841C2.08803 18.5263 2.07389 18.3611 2.09208 18.1979C2.11027 18.0346 2.16043 17.8766 2.2397 17.7328C2.31896 17.5889 2.42579 17.4621 2.55407 17.3595L16.0981 6.52427C17.2067 5.63722 18.5841 5.15393 20.0038 5.15393C21.4236 5.15393 22.801 5.63722 23.9095 6.52427L37.4536 17.3595C37.5841 17.4612 37.6931 17.5878 37.7743 17.7319C37.8555 17.8761 37.9073 18.0349 37.9267 18.1992C37.9461 18.3635 37.9327 18.53 37.8873 18.6891C37.8418 18.8481 37.7653 18.9966 37.662 19.1259C37.5588 19.2551 37.4309 19.3626 37.2858 19.4421C37.1407 19.5216 36.9813 19.5715 36.8168 19.5889C36.6523 19.6064 36.4859 19.591 36.3274 19.5436C36.1689 19.4963 36.0214 19.418 35.8933 19.3132ZM20.0038 11.2518C18.788 11.2518 17.622 11.7347 16.7624 12.5944C15.9027 13.4541 15.4197 14.6201 15.4197 15.8359C15.4197 17.0517 15.9027 18.2177 16.7624 19.0774C17.622 19.9371 18.788 20.4201 20.0038 20.4201C21.2196 20.4201 22.3856 19.9371 23.2453 19.0774C24.105 18.2177 24.588 17.0517 24.588 15.8359C24.588 14.6201 24.105 13.4541 23.2453 12.5944C22.3856 11.7347 21.2196 11.2518 20.0038 11.2518ZM22.9144 22.1904C22.1492 22.087 21.194 22.087 20.0855 22.087H19.9222C18.8136 22.087 17.8585 22.087 17.0933 22.1904C16.2748 22.3004 15.488 22.5488 14.8513 23.1856C14.2145 23.8223 13.9661 24.6092 13.8561 25.4276C13.7527 26.1928 13.7527 27.1479 13.7527 28.2565V35.4227H26.2549V28.0498C26.2549 27.0296 26.2483 26.1444 26.1516 25.4276C26.0416 24.6092 25.7932 23.8223 25.1564 23.1856C24.5196 22.5488 23.7345 22.3004 22.9144 22.1904Z" fill="black"/>
<g opacity="0.5">
<path d="M17.9199 15.8365C17.9199 15.2838 18.1395 14.7538 18.5302 14.363C18.921 13.9723 19.451 13.7527 20.0036 13.7527C20.5563 13.7527 21.0863 13.9723 21.477 14.363C21.8678 14.7538 22.0873 15.2838 22.0873 15.8365C22.0873 16.3891 21.8678 16.9191 21.477 17.3099C21.0863 17.7006 20.5563 17.9202 20.0036 17.9202C19.451 17.9202 18.921 17.7006 18.5302 17.3099C18.1395 16.9191 17.9199 16.3891 17.9199 15.8365Z" fill="white"/>
<path d="M17.9199 15.8365C17.9199 15.2838 18.1395 14.7538 18.5302 14.363C18.921 13.9723 19.451 13.7527 20.0036 13.7527C20.5563 13.7527 21.0863 13.9723 21.477 14.363C21.8678 14.7538 22.0873 15.2838 22.0873 15.8365C22.0873 16.3891 21.8678 16.9191 21.477 17.3099C21.0863 17.7006 20.5563 17.9202 20.0036 17.9202C19.451 17.9202 18.921 17.7006 18.5302 17.3099C18.1395 16.9191 17.9199 16.3891 17.9199 15.8365Z" fill="white"/>
</g>
<path opacity="0.5" d="M20.0864 22.0875C21.1933 22.0875 22.1484 22.0875 22.9136 22.1908C23.7337 22.3008 24.5189 22.5492 25.1556 23.186C25.7924 23.8228 26.0408 24.6079 26.1508 25.4281C26.2475 26.1449 26.2542 27.0283 26.2542 28.0502V35.4232H13.752V28.2552C13.752 27.1484 13.752 26.1932 13.8553 25.4281C13.9653 24.6079 14.2137 23.8228 14.8505 23.186C15.4873 22.5492 16.2741 22.3008 17.0925 22.1908C17.8577 22.0875 18.8129 22.0875 19.9214 22.0875H20.0864ZM26.6709 5.0011H30.8383C31.0594 5.0011 31.2714 5.08891 31.4277 5.24522C31.584 5.40153 31.6718 5.61353 31.6718 5.83458V12.7358L25.8374 8.06831V5.83458C25.8374 5.61353 25.9252 5.40153 26.0816 5.24522C26.2379 5.08891 26.4499 5.0011 26.6709 5.0011Z" fill="black"/>
</svg>
